<svg xmlns="http://www.w3.org/2000/svg" viewBox="0 0 100 100" width="100" height="100">
    <defs>
      <clipPath id="zimClip"><circle cx="50" cy="50" r="48" /></clipPath>
      <radialGradient id="ringZ" cx="50%" cy="50%" r="50%">
        <stop offset="90%" stop-color="#ffffff" stop-opacity="0"/>
        <stop offset="100%" stop-color="#000000" stop-opacity="0.3"/>
      </radialGradient>
    </defs>
    <circle cx="50" cy="50" r="48" fill="#ffffff" stroke="#e5e7eb" stroke-width="2"/>
    <g clip-path="url(#zimClip)">
      <rect x="0" y="2" width="100" height="14" fill="#006400"/>
      <rect x="0" y="16" width="100" height="14" fill="#ffd700"/>
      <rect x="0" y="30" width="100" height="14" fill="#d40000"/>
      <rect x="0" y="44" width="100" height="12" fill="#000000"/>
      <rect x="0" y="56" width="100" height="14" fill="#d40000"/>
      <rect x="0" y="70" width="100" height="14" fill="#ffd700"/>
      <rect x="0" y="84" width="100" height="14" fill="#006400"/>
      <!-- Triangle on hoist -->
      <polygon points="2,2 45,50 2,98" fill="#ffffff" stroke="#000000" stroke-width="2"/>
      <!-- Red Star -->
      <polygon points="18,38 22,46 30,46 24,51 26,59 18,54 11,59 13,51 7,46 15,46" fill="#d40000"/>
      <!-- Zimbabwe bird silhouette -->
      <circle cx="18" cy="48" r="4" fill="#ffd700"/>
    </g>
    <circle cx="50" cy="50" r="48" fill="url(#ringZ)" stroke="#374151" stroke-width="1.5"/>
  </svg>